<svg width="748" height="656" viewBox="0 0 748 656" fill="none" xmlns="http://www.w3.org/2000/svg">
<g filter="url(#filter0_d_4_64)">
<path d="M77.4739 284.551L200.673 407.738C217.879 424.942 241.213 434.607 265.544 434.607H330.401C354.732 434.607 378.067 444.272 395.272 461.476L543.018 609.21C560.222 626.413 583.556 636.079 607.886 636.08H964.638C1005.89 636.08 1039.33 602.639 1039.33 561.387C1039.33 551.578 1037.4 541.864 1033.65 532.802C1029.89 523.74 1024.39 515.505 1017.45 508.569L938.193 429.315C927.153 418.276 927.152 400.379 938.191 389.338C940.816 386.713 943.933 384.63 947.362 383.21C950.792 381.789 954.468 381.058 958.18 381.058C973.793 381.058 986.449 368.402 986.449 352.79C986.449 345.292 983.471 338.101 978.169 332.8L798.959 153.603C781.754 136.399 758.42 126.734 734.089 126.734H519C494.669 126.734 471.335 117.069 454.129 99.8648L421.786 67.5248C404.581 50.3213 381.247 40.6565 356.917 40.6564H141.177C112.03 40.6564 88.4025 64.2844 88.4025 93.4308C88.4026 100.361 89.7679 107.224 92.4203 113.627C95.0728 120.03 98.9605 125.848 103.862 130.749L130.248 157.135C144.823 171.707 144.824 195.337 130.251 209.911C126.786 213.377 122.671 216.126 118.144 218.001C113.616 219.877 108.763 220.842 103.862 220.842C83.251 220.842 66.5425 237.55 66.5425 258.16C66.5424 263.061 67.5078 267.914 69.3834 272.442C71.259 276.97 74.0082 281.084 77.4739 284.55V284.551Z" fill="black"/>
</g>
<path d="M77.4739 284.551L200.673 407.738C217.879 424.942 241.213 434.607 265.544 434.607H330.401C354.732 434.607 378.067 444.272 395.272 461.476L543.018 609.21C560.222 626.413 583.556 636.079 607.886 636.08H964.638C1005.89 636.08 1039.33 602.639 1039.33 561.387C1039.33 551.578 1037.4 541.864 1033.65 532.802C1029.89 523.74 1024.39 515.505 1017.45 508.569L938.193 429.315C927.153 418.276 927.152 400.379 938.191 389.338C940.816 386.713 943.933 384.63 947.362 383.21C950.792 381.789 954.468 381.058 958.18 381.058C973.793 381.058 986.449 368.402 986.449 352.79C986.449 345.292 983.471 338.101 978.169 332.8L798.959 153.603C781.754 136.399 758.42 126.734 734.089 126.734H519C494.669 126.734 471.335 117.069 454.129 99.8648L421.786 67.5248C404.581 50.3213 381.247 40.6565 356.917 40.6564H141.177C112.03 40.6564 88.4025 64.2844 88.4025 93.4308C88.4026 100.361 89.7679 107.224 92.4203 113.627C95.0728 120.03 98.9605 125.848 103.862 130.749L130.248 157.135C144.823 171.707 144.824 195.337 130.251 209.911C126.786 213.377 122.671 216.126 118.144 218.001C113.616 219.877 108.763 220.842 103.862 220.842C83.251 220.842 66.5425 237.55 66.5425 258.16C66.5424 263.061 67.5078 267.914 69.3834 272.442C71.259 276.97 74.0082 281.084 77.4739 284.55V284.551Z" fill="#2D314D"/>
<path fill-rule="evenodd" clip-rule="evenodd" d="M204.082 2.89427L327.281 126.082C344.487 143.286 367.821 152.95 392.152 152.95H457.009C481.34 152.95 504.675 162.615 521.88 179.819L669.626 327.553C686.83 344.757 710.164 354.422 734.494 354.424H1091.25C1132.5 354.424 1165.94 320.983 1165.94 279.73C1165.94 269.921 1164.01 260.208 1160.25 251.146C1156.5 242.083 1151 233.849 1144.06 226.913L1064.8 147.658C1053.76 136.62 1053.76 118.722 1064.8 107.681C1067.42 105.056 1070.54 102.974 1073.97 101.553C1077.4 100.133 1081.08 99.4015 1084.79 99.4015C1100.4 99.4015 1113.06 86.7453 1113.06 71.1331C1113.06 63.6357 1110.08 56.4448 1104.78 51.1438L925.567 -128.053C908.362 -145.257 885.027 -154.922 860.696 -154.922H645.608C621.277 -154.922 597.942 -164.587 580.737 -181.792L548.394 -214.132C531.189 -231.335 507.855 -241 483.524 -241H267.785C238.638 -241 215.01 -217.372 215.01 -188.226C215.01 -181.295 216.376 -174.432 219.028 -168.029C221.681 -161.626 225.568 -155.808 230.469 -150.908L256.856 -124.522C271.431 -109.949 271.431 -86.3193 256.859 -71.7456C253.393 -68.2799 249.279 -65.5307 244.751 -63.6551C240.223 -61.7795 235.37 -60.8141 230.469 -60.8142C209.859 -60.8142 193.15 -44.1066 193.15 -23.4961C193.15 -18.5951 194.116 -13.742 195.991 -9.2141C197.867 -4.68617 200.616 -0.571121 204.082 2.89427Z" fill="url(#paint0_linear_4_64)"/>
<defs>
<filter id="filter0_d_4_64" x="-4.10099" y="-28.1521" width="1114.08" height="736.71" filterUnits="userSpaceOnUse" color-interpolation-filters="sRGB">
<feFlood flood-opacity="0" result="BackgroundImageFix"/>
<feColorMatrix in="SourceAlpha" type="matrix" values="0 0 0 0 0 0 0 0 0 0 0 0 0 0 0 0 0 0 127 0" result="hardAlpha"/>
<feOffset dy="1.8349"/>
<feGaussianBlur stdDeviation="35.3217"/>
<feColorMatrix type="matrix" values="0 0 0 0 0 0 0 0 0 0 0 0 0 0 0 0 0 0 0.0240111 0"/>
<feBlend mode="normal" in2="BackgroundImageFix" result="effect1_dropShadow_4_64"/>
<feBlend mode="normal" in="SourceGraphic" in2="effect1_dropShadow_4_64" result="shape"/>
</filter>
<linearGradient id="paint0_linear_4_64" x1="193.15" y1="21281.8" x2="86762.3" y2="60466.8" gradientUnits="userSpaceOnUse">
<stop stop-color="#33D35E"/>
<stop offset="1" stop-color="#2AB6D9"/>
</linearGradient>
</defs>
</svg>
